<?xml version="1.0" standalone="no"?>
<!DOCTYPE svg PUBLIC "-//W3C//DTD SVG 20010904//EN"
 "http://www.w3.org/TR/2001/REC-SVG-20010904/DTD/svg10.dtd">
<svg version="1.0" xmlns="http://www.w3.org/2000/svg"
 width="99.000000pt" height="99.000000pt" viewBox="0 0 99.000000 99.000000"
 preserveAspectRatio="xMidYMid meet">
<metadata>
Created by potrace 1.14, written by Peter Selinger 2001-2017
</metadata>
<g transform="translate(0.000000,99.000000) scale(0.100000,-0.100000)"
fill="#000000" stroke="none">
<path d="M717 720 c-49 -51 -61 -59 -77 -50 -41 22 -137 8 -100 -15 6 -3 10
-11 10 -18 0 -6 -17 6 -38 26 -67 66 -159 77 -249 32 -39 -19 -113 -90 -113
-108 0 -7 -6 -23 -13 -37 -7 -14 -12 -41 -11 -60 0 -21 -7 -43 -18 -54 -17
-19 -23 -41 -19 -76 3 -24 23 -69 30 -68 3 1 19 -4 34 -10 16 -7 45 -11 65 -9
21 1 47 -2 60 -9 31 -16 129 -7 172 16 12 6 30 13 41 15 12 2 29 7 40 10 17 6
19 3 14 -18 -6 -21 -3 -24 25 -25 18 0 34 -3 37 -5 9 -9 78 15 109 38 l31 24
21 -24 c61 -70 166 -22 147 66 -7 33 -51 59 -99 59 -28 0 -42 16 -38 46 2 11
-4 42 -13 68 -17 50 -10 76 22 76 27 0 73 30 87 58 18 36 13 62 -19 90 -44 37
-73 29 -138 -38z m-553 -245 c-4 -8 -10 -15 -15 -15 -4 0 -6 7 -3 15 4 8 10
15 15 15 4 0 6 -7 3 -15z"/>
</g>
</svg>
